<svg width="191" height="49" viewBox="0 0 191 49" xmlns="http://www.w3.org/2000/svg" xmlns:xlink="http://www.w3.org/1999/xlink">
<g>
	<path fill="#00769B" d="M33.9,36.3c0,1.6,0,7.9,0.2,9.1C34,45.8,33.7,46,33.2,46c-0.6-0.9-2.1-2.8-6.7-8L14.1,24.2
		c-1.4-1.6-5-5.9-6-7.1H8c-0.2,0.6-0.2,1.9-0.2,3.5V32c0,2.4,0.1,9.3,0.9,10.9c0.3,0.6,1.3,0.9,2.7,0.9l1.6,0.2
		c0.3,0.5,0.2,1-0.1,1.3c-2.4-0.1-4.3-0.2-6.1-0.2c-2.2,0-3.6,0.1-5.4,0.2c-0.3-0.2-0.5-0.9-0.1-1.3l1.4-0.2c1.3-0.2,2.1-0.5,2.3-1
		c0.7-1.9,0.7-8.3,0.7-10.9v-15c0-1.5-0.1-2.5-1.2-3.8c-0.7-0.8-2-1.2-3.2-1.3l-0.9-0.1c-0.3-0.3-0.3-1,0.1-1.3
		c2.2,0.1,5,0.1,5.9,0.1s1.7-0.1,2.4-0.2c1,2.8,7.3,9.6,9,11.6l5.1,5.8c3.6,4,6.1,6.9,8.7,9.6h0.1c0.2-0.2,0.2-1,0.2-2.2V23.8
		c0-2.4-0.1-9.3-1-10.9c-0.3-0.5-1.2-0.8-3.2-1l-0.9-0.1c-0.3-0.3-0.3-1.2,0.1-1.3c2.4,0.1,4.3,0.2,6.1,0.2c2.3,0,3.6-0.1,5.4-0.2
		c0.5,0.2,0.5,0.9,0.1,1.3l-0.7,0.1c-1.7,0.2-2.8,0.7-2.9,1c-0.9,1.9-0.8,8.4-0.8,10.9L33.9,36.3L33.9,36.3z"/>
	<path fill="#00769B" d="M43.7,14.1c3.8-3,8.8-4.5,14.2-4.5c2.8,0,6.8,0.6,9.3,1.3c0.6,0.2,0.9,0.2,1.5,0.2c0.1,1.3,0.3,4.5,0.7,7.6
		c-0.2,0.3-1,0.5-1.4,0.1c-0.8-3.6-3.2-7.6-10.8-7.6c-8.1,0.2-14.8,5.3-14.8,16.2c0,11.1,6.9,17.1,15.5,17.1c6.8,0,9.8-4.4,11-7.5
		c0.3-0.2,1.2-0.2,1.3,0.2c-0.3,2.8-1.7,6.1-2.5,7.2c-0.6,0.1-1.3,0.3-1.9,0.6c-1.2,0.5-5,1.3-8.3,1.3c-4.7,0-9.3-0.9-13.1-3.6
		c-4.3-2.9-7.5-7.6-7.5-14.5C37.1,22.2,39.8,17.2,43.7,14.1z"/>
	<path fill="#00769B" d="M76.1,18.4c0-5.4-0.1-6.4-3.5-6.6l-1.3-0.1c-0.3-0.2-0.2-1.2,0.1-1.3c2.9,0.1,4.7,0.2,6.8,0.2
		s3.8-0.1,6.5-0.2c0.3,0.2,0.5,1,0.1,1.3l-1.3,0.1c-3.1,0.2-3.2,1-3.2,6.6v18.3c0,3.2,0.2,4.6,1,5.7c0.6,0.6,1.6,1.3,5.8,1.3
		c4.5,0,5.6-0.2,6.5-0.7c1-0.6,2.4-2.5,3.5-5.2c0.3-0.2,1.3-0.1,1.3,0.3c0,0.6-1.5,5.9-2.2,7.3c-2.7-0.1-7.6-0.2-13.1-0.2h-4.9
		c-2.2,0-3.9,0.1-6.8,0.2c-0.3-0.2-0.5-0.9-0.1-1.3l1.6-0.2c3.1-0.3,3.2-1,3.2-6.6V18.4H76.1z"/>
	<path fill="#00769B" d="M104.1,18.4c0-5.4-0.1-6.2-3.2-6.6l-0.9-0.1c-0.3-0.2-0.2-1.2,0.1-1.3c2.3,0.1,4,0.2,6.1,0.2h9.9
		c3.4,0,6.5,0,7.1-0.2c0.3,0.9,0.6,4.6,0.9,6.9c-0.2,0.3-1,0.5-1.3,0.1c-0.8-2.4-1.3-4.3-3.9-5c-1-0.2-2.8-0.3-5.1-0.3H110
		c-1.6,0-1.6,0.1-1.6,2.1v10.5c0,1.5,0.2,1.5,1.7,1.5h3.1c2.2,0,3.8-0.1,4.5-0.3c0.6-0.2,0.9-0.6,1.3-1.9l0.5-2.1
		c0.2-0.3,1.2-0.3,1.3,0.1c0,1.3-0.2,3.2-0.2,5.3c0,1.9,0.2,3.9,0.2,5.1c-0.2,0.3-1.2,0.3-1.3,0.1l-0.5-2.1
		c-0.2-0.9-0.6-1.7-1.6-2.1c-0.7-0.2-2.1-0.2-4-0.2h-3.1c-1.6,0-1.7,0.1-1.7,1.4V37c0,2.8,0.2,4.6,0.9,5.4c0.6,0.6,1.7,1.3,6.4,1.3
		c4,0,5.6-0.2,6.7-0.8c0.9-0.6,2.4-2.4,3.7-5.1c0.3-0.2,1-0.1,1.3,0.3c-0.3,1.9-1.7,5.9-2.4,7.3c-4.7-0.1-9.5-0.2-14-0.2h-4.7
		c-2.3,0-4,0.1-7.2,0.2c-0.3-0.2-0.5-0.9-0.1-1.3l1.7-0.2c3-0.2,3.2-1,3.2-6.6L104.1,18.4L104.1,18.4z"/>
	<path fill="#00769B" d="M163.1,44.1c0.3,0.3,0.3,1-0.1,1.3c-2.4-0.1-4.5-0.2-6.6-0.2c-2.4,0-4.9,0.1-6.8,0.2
		c-0.3-0.3-0.3-0.9-0.1-1.3l1.5-0.2c1.3-0.1,1.7-0.3,1.7-0.7s-0.1-0.9-1.2-2.3c-2.3-3.2-5.2-7.6-7.5-10.6c-1.4,1.7-5.3,7.5-7.4,11.2
		c-0.5,0.7-0.7,1.3-0.7,1.7c0,0.5,0.5,0.6,1.5,0.7l1.4,0.2c0.3,0.3,0.2,1-0.1,1.3c-1.9-0.1-3.9-0.2-5.7-0.2s-3.7,0.1-5.4,0.2
		c-0.5-0.2-0.6-0.9-0.2-1.3l1.3-0.2c2.8-0.3,4.6-2.5,6.2-4.6c0.6-0.9,4.3-5.4,7.2-9.6c0.3-0.6,0.5-0.9,0.5-1c0-0.2-0.2-0.6-0.6-1.3
		l-7.8-11.3c-1.7-2.4-2.8-3.6-4.6-3.9l-1.6-0.3c-0.2-0.3-0.2-1.2,0.1-1.3c2.4,0.1,4.3,0.2,6.1,0.2c2.1,0,4.4-0.1,5.9-0.2
		c0.3,0.2,0.5,0.9,0.1,1.3l-1.5,0.1c-0.9,0.1-1.6,0.3-1.6,0.7c0,0.5,0.6,1.3,1.6,2.9c1.7,2.5,4.9,7.3,6.7,9.6
		c1.3-1.7,6.1-9.1,7.1-10.6c0.5-0.7,0.7-1.3,0.7-1.7c0-0.2-0.8-0.6-1.7-0.7l-1.3-0.2c-0.3-0.3-0.3-1,0.1-1.3
		c1.9,0.1,3.6,0.2,5.6,0.2c2,0,3.5-0.1,5.1-0.2c0.3,0.2,0.5,0.9,0.1,1.3l-1.3,0.1c-1.6,0.2-3.5,1.7-5.7,4.5
		c-2.1,2.7-4.3,5.8-6.8,9.3c-0.3,0.5-0.6,0.9-0.6,0.9c0,0.2,0.1,0.6,0.7,1.3l8.9,12.6c1.7,2.4,3.2,3.2,4.7,3.5L163.1,44.1z"/>
</g>
<g>
	<path fill="#00769B" d="M165.1,11.8c2,0,3.6,1.5,3.6,3.6s-1.7,3.6-3.6,3.6c-2,0-3.6-1.5-3.6-3.6C161.5,13.3,163.1,11.8,165.1,11.8z
		 M165.1,18.4c1.7,0,2.9-1.3,2.9-3.1s-1.3-3.1-2.9-3.1c-1.7,0-2.9,1.3-2.9,3.1S163.5,18.4,165.1,18.4z M163.7,13.2h1.6
		c0.9,0,1.5,0.3,1.5,1.3c0,0.8-0.5,1-1.2,1.2l1.3,1.9h-0.7l-1.2-1.7h-0.7v1.7h-0.6v-4.3H163.7z M164.4,15.1h0.6c0.6,0,1.2,0,1.2-0.7
		c0-0.6-0.6-0.6-0.9-0.6h-0.8V15.1z"/>
</g>
</svg>
